<svg xmlns="http://www.w3.org/2000/svg" color='#fff' width="16" height="16" viewBox="0 0 16 16">
  <path fill="#fff" fill-rule="evenodd" d="M16,8 C16,12.4183 12.4183,16 8,16 C3.58172,16 0,12.4183 0,8 C0,3.58172 3.58172,0 8,0 C12.4183,0 16,3.58172 16,8 Z M11.4766,12.8907 C10.4957,13.5892 9.29585,14 8,14 C4.68629,14 2,11.3137 2,8 C2,6.70415 2.4108,5.50426 3.10928,4.52343 L11.4766,12.8907 Z M12.8908,11.4765 L4.5235,3.10923 C5.50431,2.41078 6.70419,2 8,2 C11.3137,2 14,4.68629 14,8 C14,9.29581 13.5892,10.4957 12.8908,11.4765 Z"/>
</svg>
