<?xml version="1.0" encoding="utf-8"?>
<!-- Generator: Adobe Illustrator 24.1.1, SVG Export Plug-In . SVG Version: 6.00 Build 0)  -->
<svg version="1.1" id="Layer_1" xmlns="http://www.w3.org/2000/svg" xmlns:xlink="http://www.w3.org/1999/xlink" x="0px" y="0px"
	 viewBox="0 0 512 512" style="enable-background:new 0 0 512 512;" xml:space="preserve">
<style type="text/css">
	.st0{fill:#555555;}
</style>
<g>
	<path class="st0" d="M504.9,7.1c9.5,9.5,9.5,24.9,0,34.4L290.4,256l214.5,214.5c9.5,9.5,9.5,24.9,0,34.4c-9.5,9.5-24.9,9.5-34.4,0
		L256,290.4L41.5,504.9c-9.5,9.5-24.9,9.5-34.4,0c-9.5-9.5-9.5-24.9,0-34.4L221.6,256L7.1,41.5c-9.5-9.5-9.5-24.9,0-34.4
		c9.5-9.5,24.9-9.5,34.4,0L256,221.6L470.5,7.1C480-2.4,495.4-2.4,504.9,7.1z"/>
</g>
</svg>
