<svg xmlns="http://www.w3.org/2000/svg" viewBox="0 0 32 32">
    <path style="text-indent:0;text-align:start;line-height:normal;text-transform:none;block-progression:tb;-inkscape-font-specification:Bitstream Vera Sans" d="M 9 5 L 9 6 L 9 19 L 11 19 L 11 7 L 25 7 L 25 23 C 25 24.116666 24.116666 25 23 25 C 21.883334 25 21 24.116666 21 23 L 21 21 L 21 20 L 6 20 L 5 20 L 5 21 L 5 23 C 5 25.197334 6.8026661 27 9 27 L 23 27 C 25.197334 27 27 25.197334 27 23 L 27 6 L 27 5 L 26 5 L 10 5 L 9 5 z M 13 11 L 13 13 L 15 13 L 15 11 L 13 11 z M 17 11 L 17 13 L 23 13 L 23 11 L 17 11 z M 13 15 L 13 17 L 15 17 L 15 15 L 13 15 z M 17 15 L 17 17 L 23 17 L 23 15 L 17 15 z M 7 22 L 19 22 L 19 23 C 19 23.732445 19.214056 24.407407 19.5625 25 L 9 25 C 7.8833339 25 7 24.116666 7 23 L 7 22 z" color="#000" overflow="visible" font-family="Bitstream Vera Sans"/>
</svg>