<?xml version="1.0" encoding="utf-8"?>
<!-- Generator: Adobe Illustrator 24.1.1, SVG Export Plug-In . SVG Version: 6.00 Build 0)  -->
<svg version="1.1" id="Layer_1" xmlns="http://www.w3.org/2000/svg" xmlns:xlink="http://www.w3.org/1999/xlink" x="0px" y="0px"
	 viewBox="0 0 512 512" style="enable-background:new 0 0 512 512;"
	 fill="#00b206a0" 
	 xml:space="preserve">
<g>
	<path d="M98,34.4c65.4,0,106.5,32.7,123.6,98c17,62.7,8.1,130.3-26.9,202.8c-35.8,75.2-86,120.9-150.4,137
		c-14.3,3.6-29.1,5.4-44.3,5.4v-47c50.1,0,90.9-24.2,122.2-72.5c24.2-38.5,30-71.2,17.5-98c-7.2-16.1-21-24.2-41.6-24.2
		c-26.9,0-49.9-9.8-69.2-29.5S0,162.9,0,135.1s9.6-51.5,28.9-71.2S71.2,34.4,98,34.4 M380.1,34.4c65.4,0,106.5,32.7,123.6,98
		c17,62.7,8.1,130.3-26.9,202.8c-35.8,75.2-86,120.9-150.4,137c-14.3,3.6-29.1,5.4-44.3,5.4v-47c50.1,0,90.9-24.2,122.2-72.5
		c24.2-38.5,30-71.2,17.5-98c-7.2-16.1-21-24.2-41.6-24.2c-26.9,0-49.9-9.8-69.2-29.5S282,162.9,282,135.1s9.6-51.5,28.9-71.2
		S353.2,34.4,380.1,34.4"/>
</g>
</svg>
