<?xml version="1.0" encoding="utf-8"?>
<!-- Generator: Adobe Illustrator 24.1.1, SVG Export Plug-In . SVG Version: 6.00 Build 0)  -->
<svg version="1.1" id="Layer_1" xmlns="http://www.w3.org/2000/svg" xmlns:xlink="http://www.w3.org/1999/xlink" x="0px" y="0px"
	 viewBox="0 0 512 512" style="enable-background:new 0 0 512 512;" xml:space="preserve" fill='#00b207'>
<g>
	<path class="st0" d="M273.5,238.4c-9.9-9.7-25.8-9.7-35.7,0l-76.6,74c-10.9,9-12.4,25-3.5,35.9c9,10.9,25.1,12.4,35.9,3.4l2.7-2.6
		l33.4-32.4v143.9c0,14.1,11.4,25.5,25.5,25.5c14.1,0,25.5-11.4,25.5-25.5V318l32.9,33.2c9.9,10,26.1,10.1,36.1,0.1l0.1-0.1
		c10-9.9,10.1-26.1,0.1-36.1l-0.1-0.1L273.5,238.4z"/>
	<path class="st0" d="M400.1,128.9C372.4,49,285.2,6.6,205.3,34.3c-44.4,15.4-79.3,50.2-94.6,94.6C40.8,138.2-8.2,202.5,1.1,272.3
		C4.5,297.4,15.3,321,32.1,340c7,12.3,22.5,16.6,34.8,9.6c12.3-7,16.5-22.5,9.6-34.8c-1.6-2.8-3.6-5.2-6.1-7.2
		c-28.2-31.5-25.5-79.9,6-108.1c14.1-12.6,32.5-19.6,51.4-19.5h2.6c12.3,0.2,23.1-8.3,25.5-20.4c11.2-55.3,65.1-90.9,120.4-79.7
		c40.2,8.2,71.6,39.6,79.7,79.7c2.5,12.1,13.2,20.7,25.5,20.4h1.5c42.3-0.2,76.7,33.9,76.9,76.2c0.1,19-6.9,37.3-19.5,51.4
		c-9.4,10.5-8.5,26.7,2.1,36l0.2,0.2c4.6,4.1,10.6,6.4,16.8,6.4c7.3,0,14.3-3.2,19.1-8.7c47.5-52.1,43.7-132.8-8.4-180.3
		C450.8,143.4,426.3,132.1,400.1,128.9z"/>
</g>
</svg>
